<svg xmlns="http://www.w3.org/2000/svg" viewBox="0 0 480 640">
	<defs>
		<style>.cls-1{fill:#409eff;}</style>
	</defs>
	<title>logo_R</title>
	<g>
		<path class="cls-1" d="M105,535.81A100.32,100.32,0,0,1,8.66,640l-1.17,0H0V59.52H7.49A100.86,100.86,0,0,1,105.63,163q0,.43,0,.87ZM337.5,387,480,640H450c-74.56,0-96-18.27-120-59.52L165,297.6h90c52.45,0,105-37.6,105-89.31A105.6,105.6,0,0,0,270,104.1H165C106.75,104.19,60,0,60,0H270C381.08,4.43,468,97.27,465,208.38A204.13,204.13,0,0,1,337.5,387Z"/>
	</g>
</svg>